<?xml version="1.0" encoding="UTF-8"?>
<!DOCTYPE svg PUBLIC "-//W3C//DTD SVG 1.1//EN" "http://www.w3.org/Graphics/SVG/1.1/DTD/svg11.dtd">
<svg version="1.1" xmlns="http://www.w3.org/2000/svg" xmlns:xlink="http://www.w3.org/1999/xlink" x="0" y="0" width="500" height="395" viewBox="0, 0, 500, 395">
  <g id="Layer_1">
    <path d="M349.902,194.788 L354.078,142.785 L288.498,146.525 L273.444,193.621 L307.461,264.207 L377.71,280.52 L349.902,194.788" fill="#BFC0BF"/>
    <path d="M186.545,184.353 L190.025,142.644 L219.353,113.886 L296.274,137.145 L289.665,182.04 L307.461,264.207 L208.236,284.633 L186.545,184.353" fill="#E4E4E3"/>
    <path d="M305.907,150.399 L371.691,145.295 L374.139,135.093 L298.222,131.253" fill="#B2242A"/>
    <path d="M307.222,138.046 L262.131,124.834 L218.031,103.86 L326.312,118.407 L374.139,135.093 L307.222,138.046" fill="#CE453B"/>
    <path d="M160.241,163.351 L218.031,103.86 L307.222,138.046 L305.907,150.399 L223.03,117.325 L170.021,169.412 L160.241,163.351" fill="#E57268"/>
    <path d="M339.123,159.899 L343.152,182.68 L335.544,197.411 L315.441,191.863 L319.309,158.422 L339.123,159.899" fill="#987B4D"/>
    <path d="M336.803,164.371 L339.798,181.33 L334.131,192.285 L319.168,188.15 L322.051,163.267 L336.803,164.371" fill="#85BEC4"/>
    <path d="M212.04,148.438 L210.873,169.292 L214.36,180.873 L250.269,180.873 L252.582,165.819 L252.582,148.438 L212.04,148.438" fill="#987B4D"/>
    <path d="M216.871,152.417 L215.992,168.161 L218.607,176.9 L245.727,176.9 L247.471,165.538 L247.471,152.417 L216.871,152.417" fill="#85BEC4"/>
    <path d="M180.92,116.938 L134.893,82.998 L139.478,76.775 L185.504,110.722 L180.92,116.938" fill="#4D4E4C"/>
    <path d="M172.475,129.383 L126.456,95.436 L131.047,89.214 L177.066,123.167 L172.475,129.383" fill="#4D4E4C"/>
    <path d="M95.715,203.64 C95.715,203.64 100.574,331.187 102.177,331.229 C109.792,331.447 95.757,336.96 87.84,336.96 C79.923,336.96 73.51,334.4 73.51,331.229 C73.51,330.421 69.721,198.219 69.721,198.219 L157.372,69.519 L178.086,87.421 L95.715,203.64" fill="#89908C"/>
    <path d="M178.093,87.414 C175.885,89.523 168.467,85.74 162.709,80.108 C157.941,75.439 155.79,71.003 157.372,69.519 C158.954,68.036 164.052,69.688 169.381,73.794 C175.808,78.758 180.287,85.311 178.093,87.414" fill="#BFC0BF"/>
    <path d="M378.336,288.999 L390.81,255.32 L305.984,242.847 L308.48,333.908 L389.565,337.656 L378.336,288.999" fill="#BFC0BF"/>
    <path d="M193.717,292.74 L165.029,247.831 L209.938,194.197 L305.984,242.847 L319.709,293.992 L308.48,333.908 L176.258,333.908 L193.717,292.74" fill="#E4E4E3"/>
    <path d="M327.233,252.381 L412.67,263.174 L418.484,250.785 L322.438,225.873" fill="#B2242A"/>
    <path d="M332.155,236.933 L267.657,214.946 L210.901,181.028 L361.729,216.852 L418.484,250.785 L332.155,236.933" fill="#CE453B"/>
    <path d="M141.728,264.615 L210.901,181.028 L332.155,236.933 L327.233,252.381 L213.749,199.569 L152.633,274.937 L141.728,264.615" fill="#E57268"/>
    <path d="M209.938,337.656 L221.167,290.244 L212.434,264.06 L264.824,261.557 L267.313,297.726 L257.335,336.404" fill="#E19A2E"/>
    <path d="M340.916,269.045 L330.938,296.488 L337.175,316.45 L363.367,313.954 L365.863,271.541 L340.916,269.045" fill="#987B4D"/>
    <path d="M342.828,275.099 L335.403,295.524 L340.037,310.389 L359.542,308.525 L361.398,276.955 L342.828,275.099" fill="#85BEC4"/>
    <path d="M495.8,391.831 L5.588,391.831 L44.773,324.058 L456.622,324.058 L495.8,391.831" fill="#A9AAA9"/>
    <path d="M395.717,133.883 C395.563,133.096 395.492,132.217 395.443,131.253 C395.338,129.327 395.268,127.049 395.007,125.446 C394.881,124.377 394.67,123.871 394.6,123.871 C393.917,123.188 393.151,122.971 391.674,122.956 C390.332,122.956 388.616,123.238 386.725,123.259 C385.241,123.259 383.553,123.048 381.979,122.106 C376.375,118.168 378.913,113.352 377.042,112.543 C376.389,111.946 376.03,111.861 375.116,111.826 C374.096,111.812 372.683,112.192 370.953,112.213 C369.898,112.213 368.626,112.016 367.452,111.228 C364.196,109.007 363.584,105.259 363.599,101.765 C363.599,97.834 364.337,93.545 364.337,89.889 C364.316,86.232 363.648,83.575 361.693,82.035 C360.617,81.17 359.415,80.804 357.749,80.804 C350.978,80.614 340.156,88.265 331.438,88.454 C331.332,88.454 331.234,88.454 331.107,88.454 L331.107,88.476 C329.912,88.476 328.935,87.491 328.935,86.303 C328.935,85.101 329.912,84.13 331.107,84.13 C331.213,84.13 331.332,84.13 331.438,84.13 C337.815,84.341 348.734,76.656 357.749,76.466 C360.076,76.466 362.459,77.078 364.421,78.653 C367.958,81.521 368.675,85.846 368.654,89.889 C368.654,94.072 367.923,98.382 367.923,101.765 C367.944,104.929 368.535,106.785 369.863,107.643 C370.109,107.797 370.37,107.868 370.953,107.889 C371.86,107.903 373.33,107.516 375.116,107.502 C376.642,107.467 378.617,107.938 380.122,109.499 C383.926,114.399 381.247,117.128 384.221,118.415 C384.819,118.752 385.621,118.921 386.725,118.921 C388.103,118.935 389.804,118.64 391.674,118.64 C393.566,118.618 395.928,118.998 397.7,120.861 C399.486,122.999 399.332,125.39 399.605,127.963 C399.669,129.397 399.76,130.916 399.845,131.956 C400.021,132.041 400.203,132.146 400.358,132.273 C401.286,133.046 401.413,134.411 400.66,135.339 C400.252,135.726 399.901,136.436 398.382,136.562 C395.703,136.049 395.999,134.446 395.717,133.883" fill="#416F94"/>
    <path d="M53.415,231.793 C52.206,231.751 51.264,230.76 51.299,229.564 C51.299,229.459 51.313,229.332 51.313,229.178 C51.594,223.925 45.568,220.29 43.965,212.675 C43.768,211.543 43.705,210.496 43.705,209.561 C43.74,206.094 44.612,203.879 44.556,201.967 C44.556,201.018 44.401,200.047 43.909,198.753 C43.191,197.171 42.643,197.01 41.582,196.56 C40.885,196.335 38.045,195.639 37.967,192.657 C38.002,191.139 38.565,189.817 39.605,187.778 C42.066,183.383 47.333,181.239 52.002,180.726 C50.546,177.864 49.027,174.629 49,170.72 C49,169.707 49.105,168.653 49.365,167.549 C49.555,166.698 50.251,166.065 51.109,165.932 C52.241,165.721 53.373,165.636 54.491,165.636 C58.709,165.65 62.535,166.754 66.043,167.436 C66.781,166.128 67.583,165.559 67.695,164.954 C68.131,163.836 69.369,163.288 70.501,163.717 C71.598,164.132 72.16,165.39 71.738,166.501 C70.6,168.997 69.545,169.482 69.467,170.361 C69.207,171.451 68.152,172.168 67.035,172.014 C62.591,171.311 58.442,169.954 54.491,169.975 C54.104,169.975 53.731,169.989 53.352,170.017 C53.338,170.249 53.324,170.481 53.316,170.72 C53.289,174.397 55.553,177.955 57.451,181.977 C57.795,182.708 57.697,183.559 57.205,184.206 C56.72,184.852 55.904,185.162 55.117,185.028 C54.772,184.951 54.329,184.916 53.823,184.916 C50.11,184.811 44.591,187.187 43.438,189.782 C42.826,190.928 42.51,191.765 42.376,192.235 C42.566,192.306 42.819,192.397 43.107,192.503 C44.485,192.974 46.82,194.239 47.917,197.15 C48.62,198.894 48.894,200.511 48.894,201.967 C48.845,204.976 48.008,206.98 48.022,209.561 C48.043,210.27 48.092,211.058 48.233,211.944 C48.789,217.084 55.342,220.965 55.637,229.178 C55.637,229.332 55.637,229.487 55.637,229.705 C55.602,230.865 54.631,231.793 53.471,231.793 L53.415,231.793" fill="#416F94"/>
    <path d="M115.761,62.762 C114.587,62.467 113.891,61.278 114.186,60.125 C115.93,54.599 115.318,39.433 125.717,36.05 C126.371,35.882 127.053,35.783 127.735,35.783 C134.443,36.043 140.799,42.758 145.025,45.929 C149.047,40.255 151.74,37.077 155.994,36.852 C161.162,37.183 164.34,41.633 170.928,48.334 C171.751,49.199 171.716,50.584 170.858,51.407 C169.993,52.222 168.608,52.187 167.785,51.336 C161.352,44.319 157.513,40.846 155.994,41.176 C154.792,40.937 151.93,43.236 147.374,50.113 C146.727,51.076 145.44,51.351 144.463,50.76 C139.646,47.631 131.912,39.819 127.735,40.114 C127.412,40.114 127.131,40.149 126.842,40.241 C121.077,41.092 119.776,54.437 118.391,61.194 L118.391,61.215 C118.145,62.179 117.259,62.832 116.295,62.832 C116.12,62.832 115.937,62.811 115.761,62.762" fill="#416F94"/>
    <path d="M418.85,296.994 C414.055,296.924 408.922,294.519 406.777,294.645 C406.482,294.632 406.342,294.645 406.271,294.66 L406.222,294.702 L406.243,294.716 C405.589,295.714 404.239,296.01 403.227,295.363 C402.229,294.716 401.933,293.366 402.58,292.368 C403.578,290.771 405.399,290.272 406.777,290.314 C410.743,290.42 415.44,292.733 418.85,292.67 C420.045,292.67 420.924,292.424 421.585,291.946 C425.706,290.04 421.199,279.093 427.738,273.067 C429.292,271.907 431.092,271.506 432.751,271.52 C436.527,271.576 440.049,273.144 442.468,273.081 C443.586,273.067 444.289,272.856 445.006,272.258 C446.075,271.696 447.053,266.457 446.898,262.007 C446.898,258.575 446.631,255.7 446.631,254.561 C447.123,252.852 446.743,253.035 448.811,252.374 C449.999,252.374 450.983,253.337 450.983,254.546 L450.962,254.8 C450.99,255.784 451.229,258.779 451.229,262.007 C451.088,266.809 451.138,272.272 447.847,275.535 C446.216,276.955 444.233,277.426 442.468,277.412 C438.699,277.335 435.177,275.774 432.751,275.851 C431.71,275.865 430.993,276.062 430.311,276.547 C426.451,278.165 430.888,289.316 424.124,295.447 C422.542,296.586 420.699,296.994 418.963,296.994 L418.85,296.994" fill="#416F94"/>
    <path d="M397.405,101.132 C396.027,99.507 396.027,97.792 395.971,95.936 C395.971,92.807 396.547,88.954 396.547,85.782 C396.604,83.124 396.006,81.191 395.443,80.825 C395.394,80.903 395.394,80.776 394.832,80.706 C394.276,80.601 393.453,80.558 392.539,80.558 C389.495,80.551 385.557,81.071 383.328,81.093 C383.139,81.093 382.963,81.071 382.829,81.071 C381.774,81.036 380.881,80.235 380.762,79.187 C380.691,78.653 380.691,78.217 380.691,77.83 C380.762,72.655 382.998,67.452 382.928,63.304 C382.914,61.124 382.436,59.401 380.966,57.721 C379.166,55.667 375.686,54.627 371.551,54.641 C364.85,54.571 356.757,57.475 353.832,60.118 L353.854,60.14 C352.946,60.92 351.582,60.835 350.788,59.929 C349.986,59.015 350.07,57.65 350.984,56.863 C355.309,53.165 363.69,50.366 371.551,50.303 C376.311,50.317 381.036,51.399 384.193,54.831 C386.5,57.369 387.287,60.449 387.259,63.304 C387.209,68.204 385.375,72.957 385.058,76.67 C387.076,76.529 390.008,76.241 392.539,76.227 C394.691,76.332 396.491,76.171 398.333,77.605 C400.646,79.792 400.815,82.808 400.871,85.782 C400.871,89.39 400.295,93.327 400.295,95.936 C400.238,97.476 400.484,98.165 400.576,98.179 C401.377,99.036 401.35,100.415 400.471,101.244 C400.056,101.624 399.521,101.821 398.987,101.821 C398.41,101.821 397.834,101.589 397.405,101.132" fill="#416F94"/>
    <path d="M108.786,30.911 C107.5,26.235 106.431,21.32 106.431,16.222 C106.431,14.76 106.501,13.262 106.726,11.765 C106.867,10.78 107.633,10.035 108.617,9.908 C109.975,9.753 111.353,9.648 112.752,9.648 C118.307,9.648 123.777,10.97 128.727,13.114 C130.632,8.361 134.816,6.182 138.634,6.315 C144.076,6.575 149.532,9.177 150.095,14.183 C150.095,14.844 149.933,15.526 149.659,16.102 C149.152,17.186 147.866,17.636 146.776,17.129 C145.693,16.609 145.229,15.315 145.75,14.232 L145.764,14.183 C145.785,14.148 145.334,13.051 143.865,12.179 C142.452,11.286 140.469,10.625 138.634,10.646 C135.716,10.78 133.381,11.743 132.207,16.588 C132.074,17.249 131.631,17.811 131.026,18.106 C130.414,18.381 129.718,18.381 129.113,18.071 C124.135,15.561 118.412,13.986 112.752,13.986 C112.112,13.986 111.479,14.015 110.839,14.057 C110.79,14.767 110.762,15.491 110.762,16.222 C110.762,20.708 111.718,25.265 112.956,29.757 L112.977,29.757 C113.286,30.911 112.611,32.099 111.458,32.429 C111.268,32.478 111.071,32.507 110.889,32.507 C109.932,32.507 109.053,31.874 108.786,30.911" fill="#416F94"/>
    <path d="M31.583,196.686 C23.764,190.4 17.668,188.066 17.021,182.251 C17.415,177.843 21.071,175.452 28.32,171.571 C27.027,169.792 26.021,168.013 25.121,167.584 C24.615,167.253 24.249,166.733 24.123,166.143 C24.024,165.545 24.165,164.919 24.516,164.455 C27.139,160.946 31.358,159.99 35.119,159.99 C38.234,159.99 41.237,160.651 43.438,161.558 L43.459,161.558 C44.556,162.008 45.097,163.267 44.647,164.378 C44.19,165.475 42.938,166.016 41.82,165.566 C40.189,164.905 37.595,164.314 35.119,164.329 C32.89,164.314 30.873,164.765 29.424,165.686 C31.189,167.683 32.237,170.003 33.116,170.558 C33.671,171.015 33.952,171.747 33.875,172.456 C33.798,173.195 33.341,173.821 32.701,174.144 C23.708,178.468 21.043,181.618 21.346,182.251 C20.691,183.193 25.923,187.3 34.213,193.255 C35.155,193.972 35.345,195.329 34.613,196.286 C34.184,196.841 33.537,197.136 32.884,197.129 C32.427,197.129 31.97,196.989 31.583,196.686" fill="#416F94"/>
    <path d="M431.07,303.772 C430.199,302.95 430.156,301.579 430.986,300.706 C432.997,298.64 435.563,298.64 437.413,298.618 C437.75,298.618 438.095,298.618 438.488,298.618 C441.962,298.035 442.988,299.771 443.6,291.243 C443.6,290.666 443.586,290.054 443.565,289.421 C443.53,288.718 443.846,288.05 444.409,287.628 C444.971,287.2 445.688,287.073 446.35,287.277 C449.612,288.261 452.031,288.669 453.781,288.669 C459.441,288.915 460.194,284.176 467.802,275.809 C468.625,274.93 469.988,274.895 470.867,275.704 C471.746,276.519 471.781,277.89 470.973,278.762 C464.23,285.758 462.894,292.769 453.781,293 C452.066,293 450.146,292.733 447.917,292.192 C447.798,296.453 446.884,299.244 444.95,301.037 C442.848,302.929 440.345,302.929 438.488,302.95 C438.151,302.95 437.785,302.95 437.413,302.95 C435.578,302.929 434.593,303.161 434.136,303.688 C433.714,304.138 433.138,304.363 432.561,304.363 C432.034,304.363 431.492,304.166 431.07,303.772" fill="#416F94"/>
  </g>
</svg>
